# This file uses centimeters as units for non-parametric coordinates.

v 0.433013 0.515547 -3.739537
v -0.433013 0.515547 -3.739538
v -0.866025 0.515547 -0.000001
v -0.433013 0.515547 3.739537
v 0.433013 0.515547 3.739538
v 0.866025 0.515547 0.000000
v 0.433013 1.515547 -3.739537
v -0.433013 1.515547 -3.739538
v -0.866025 1.515547 -0.000001
v -0.433013 1.515547 3.739537
v 0.433013 1.515547 3.739538
v 0.866025 1.515547 0.000000
v 0.000000 0.015547 0.000000
v 0.000000 2.015547 0.000000
vt 0.000000 0.333333
vt 0.166667 0.333333
vt 0.333333 0.333333
vt 0.500000 0.333333
vt 0.666667 0.333333
vt 0.833333 0.333333
vt 1.000000 0.333333
vt 0.000000 0.666667
vt 0.166667 0.666667
vt 0.333333 0.666667
vt 0.500000 0.666667
vt 0.666667 0.666667
vt 0.833333 0.666667
vt 1.000000 0.666667
vt 0.083333 0.000000
vt 0.250000 0.000000
vt 0.416667 0.000000
vt 0.583333 0.000000
vt 0.750000 0.000000
vt 0.916667 0.000000
vt 0.083333 1.000000
vt 0.250000 1.000000
vt 0.416667 1.000000
vt 0.583333 1.000000
vt 0.750000 1.000000
vt 0.916667 1.000000
vn 0.000001 0.000000 -1.000000
vn 0.000001 0.000000 -1.000000
vn 0.000001 0.000000 -1.000000
vn 0.000001 0.000000 -1.000000
vn -0.993363 0.000000 -0.115025
vn -0.993363 0.000000 -0.115025
vn -0.993363 0.000000 -0.115025
vn -0.993363 0.000000 -0.115025
vn -0.993363 0.000000 0.115025
vn -0.993363 0.000000 0.115025
vn -0.993363 0.000000 0.115025
vn -0.993363 0.000000 0.115025
vn -0.000000 0.000000 1.000000
vn -0.000000 0.000000 1.000000
vn -0.000000 0.000000 1.000000
vn -0.000000 0.000000 1.000000
vn 0.993363 0.000000 0.115025
vn 0.993363 0.000000 0.115025
vn 0.993363 0.000000 0.115025
vn 0.993363 0.000000 0.115025
vn 0.993363 0.000000 -0.115025
vn 0.993363 0.000000 -0.115025
vn 0.993363 0.000000 -0.115025
vn 0.993363 0.000000 -0.115025
vn 0.000000 -0.991179 -0.132527
vn 0.000000 -0.991179 -0.132527
vn 0.000000 -0.991179 -0.132527
vn -0.499164 -0.864578 -0.057800
vn -0.499164 -0.864578 -0.057800
vn -0.499164 -0.864578 -0.057800
vn -0.499164 -0.864578 0.057800
vn -0.499164 -0.864578 0.057800
vn -0.499164 -0.864578 0.057800
vn -0.000000 -0.991179 0.132527
vn -0.000000 -0.991179 0.132527
vn -0.000000 -0.991179 0.132527
vn 0.499164 -0.864578 0.057800
vn 0.499164 -0.864578 0.057800
vn 0.499164 -0.864578 0.057800
vn 0.499164 -0.864578 -0.057800
vn 0.499164 -0.864578 -0.057800
vn 0.499164 -0.864578 -0.057800
vn 0.000000 0.991179 -0.132527
vn 0.000000 0.991179 -0.132527
vn 0.000000 0.991179 -0.132527
vn -0.499164 0.864578 -0.057800
vn -0.499164 0.864578 -0.057800
vn -0.499164 0.864578 -0.057800
vn -0.499164 0.864578 0.057800
vn -0.499164 0.864578 0.057800
vn -0.499164 0.864578 0.057800
vn -0.000000 0.991179 0.132527
vn -0.000000 0.991179 0.132527
vn -0.000000 0.991179 0.132527
vn 0.499164 0.864578 0.057800
vn 0.499164 0.864578 0.057800
vn 0.499164 0.864578 0.057800
vn 0.499164 0.864578 -0.057800
vn 0.499164 0.864578 -0.057800
vn 0.499164 0.864578 -0.057800
f 1/1/1 2/2/2 8/9/3 7/8/4
f 2/2/5 3/3/6 9/10/7 8/9/8
f 3/3/9 4/4/10 10/11/11 9/10/12
f 4/4/13 5/5/14 11/12/15 10/11/16
f 5/5/17 6/6/18 12/13/19 11/12/20
f 6/6/21 1/7/22 7/14/23 12/13/24
f 2/2/25 1/1/26 13/15/27
f 3/3/28 2/2/29 13/16/30
f 4/4/31 3/3/32 13/17/33
f 5/5/34 4/4/35 13/18/36
f 6/6/37 5/5/38 13/19/39
f 1/7/40 6/6/41 13/20/42
f 7/8/43 8/9/44 14/21/45
f 8/9/46 9/10/47 14/22/48
f 9/10/49 10/11/50 14/23/51
f 10/11/52 11/12/53 14/24/54
f 11/12/55 12/13/56 14/25/57
f 12/13/58 7/14/59 14/26/60
v -0.355062 0.828520 3.043072
v 0.464809 0.576256 3.054008
v 0.273170 1.412417 3.061361
v 0.055069 0.885460 7.256912
vt 0.375000 0.033494
vt 0.375000 0.466506
vt 0.750000 0.250000
vt 0.250000 0.500000
vt 0.416667 0.500000
vt 0.583333 0.500000
vt 0.750000 0.500000
vt 0.500000 1.000000
vn 0.017258 0.012747 -0.999770
vn 0.017258 0.012747 -0.999770
vn 0.017258 0.012747 -0.999770
vn -0.294335 -0.954799 0.041549
vn -0.294335 -0.954799 0.041549
vn -0.294335 -0.954799 0.041549
vn 0.971876 0.222054 0.078412
vn 0.971876 0.222054 0.078412
vn 0.971876 0.222054 0.078412
vn -0.680586 0.730497 0.056370
vn -0.680586 0.730497 0.056370
vn -0.680586 0.730497 0.056370
f 15/27/61 17/29/62 16/28/63
f 15/30/64 16/31/65 18/34/66
f 16/31/67 17/32/68 18/34/69
f 17/32/70 15/33/71 18/34/72
